<svg width="179" height="51" viewBox="0 0 179 51" fill="none" xmlns="http://www.w3.org/2000/svg">
<path d="M65.4492 49.4556L74.5159 2.45537H88.6825L79.8992 49.4556H65.4492Z" fill="#3C58BF"/>
<path d="M65.4492 49.4556L77.0659 2.45537H88.6825L79.8992 49.4556H65.4492Z" fill="#293688"/>
<path d="M131.182 2.97818C128.349 1.93373 123.815 0.889282 118.149 0.889282C103.982 0.889282 93.782 7.41709 93.782 16.8171C93.782 23.8672 100.865 27.5227 106.532 29.8728C112.199 32.2228 113.899 33.7894 113.899 35.8783C113.899 39.0117 109.365 40.5784 105.399 40.5784C99.732 40.5784 96.6154 39.795 91.7987 37.9672L89.8154 37.1839L87.832 47.8895C91.232 49.1951 97.4654 50.5006 103.982 50.5006C118.999 50.5006 128.915 43.9728 128.915 34.0505C128.915 28.5672 125.232 24.3894 116.732 20.9949C111.632 18.6449 108.515 17.3394 108.515 14.9893C108.515 12.9004 111.065 10.8116 116.732 10.8116C121.549 10.8116 124.949 11.5949 127.499 12.6393L128.915 13.1616L131.182 2.97818Z" fill="#3C58BF"/>
<path d="M131.182 2.97818C128.349 1.93373 123.815 0.889282 118.149 0.889282C103.982 0.889282 96.332 7.41709 96.332 16.8171C96.332 23.8672 100.865 27.5227 106.532 29.8728C112.199 32.2228 113.899 33.7894 113.899 35.8783C113.899 39.0117 109.365 40.5784 105.399 40.5784C99.732 40.5784 96.6154 39.795 91.7987 37.9672L89.8154 37.1839L87.832 47.8895C91.232 49.1951 97.4654 50.5006 103.982 50.5006C118.999 50.5006 128.915 43.9728 128.915 34.0505C128.915 28.5672 125.232 24.3894 116.732 20.9949C111.632 18.6449 108.515 17.3394 108.515 14.9893C108.515 12.9004 111.065 10.8116 116.732 10.8116C121.549 10.8116 124.949 11.5949 127.499 12.6393L128.915 13.1616L131.182 2.97818Z" fill="#293688"/>
<path d="M155.552 2.45537C152.152 2.45537 149.602 2.71648 148.186 5.84983L126.936 49.4556H142.236L145.069 41.6222H163.202L164.902 49.4556H178.502L166.602 2.45537H155.552ZM149.036 33.7889C149.886 31.4388 154.702 19.9499 154.702 19.9499C154.702 19.9499 155.836 17.0777 156.686 15.2499L157.536 19.6888C157.536 19.6888 160.369 31.4388 160.936 34.05H149.036V33.7889Z" fill="#3C58BF"/>
<path d="M158.952 2.45537C155.552 2.45537 153.002 2.71648 151.586 5.84983L126.936 49.4556H142.236L145.069 41.6222H163.202L164.902 49.4556H178.502L166.602 2.45537H158.952ZM149.036 33.7889C150.169 31.1777 154.702 19.9499 154.702 19.9499C154.702 19.9499 155.836 17.0777 156.686 15.2499L157.536 19.6888C157.536 19.6888 160.369 31.4388 160.936 34.05H149.036V33.7889Z" fill="#293688"/>
<path d="M39.3828 35.3568L37.9661 28.5678C35.4161 20.7345 27.1995 12.1178 18.1328 7.93996L30.8828 49.7179H46.1828L69.1328 2.71771H53.8328L39.3828 35.3568Z" fill="#3C58BF"/>
<path d="M39.3828 35.3568L37.9661 28.5678C35.4161 20.7345 27.1995 12.1178 18.1328 7.93996L30.8828 49.7179H46.1828L69.1328 2.71771H56.6661L39.3828 35.3568Z" fill="#293688"/>
<path d="M0 2.45537L2.55 2.97759C20.6833 6.89428 33.15 16.8165 37.9667 28.5666L32.8667 6.37205C32.0167 3.2387 29.4667 2.45537 26.35 2.45537H0Z" fill="#FFBC00"/>
<path d="M0 2.45537C18.1333 6.37205 33.15 16.5554 37.9667 28.3055L33.15 9.76651C32.3 6.63316 29.4667 4.80538 26.35 4.80538L0 2.45537Z" fill="#F7981D"/>
<path d="M0 2.45537C18.1333 6.37205 33.15 16.5554 37.9667 28.3055L34.5667 18.1221C33.7167 14.9888 32.5833 11.8554 28.6167 10.5499L0 2.45537Z" fill="#ED7C00"/>
<path d="M53.5513 33.789L43.918 24.9112L39.3846 34.8335L38.2513 28.3057C35.7013 20.4723 27.4846 11.8556 18.418 7.6778L31.168 49.4558H46.468L53.5513 33.789Z" fill="#051244"/>
<path d="M79.8992 49.4562L67.7159 37.9673L65.4492 49.4562H79.8992Z" fill="#051244"/>
<path d="M112.482 33.2663C113.615 34.3107 114.182 35.0941 113.899 36.1385C113.899 39.2719 109.365 40.8386 105.399 40.8386C99.732 40.8386 96.6154 40.0552 91.7987 38.2274L89.8154 37.4441L87.832 48.1497C91.232 49.4553 97.4654 50.7608 103.982 50.7608C113.049 50.7608 120.415 48.4108 124.665 44.233L112.482 33.2663Z" fill="#051244"/>
<path d="M128.918 49.4559H142.235L145.068 41.6225H163.201L164.901 49.4559H178.501L173.685 30.3947L156.685 15.2502L157.535 19.428C157.535 19.428 160.368 31.178 160.935 33.7891H149.035C150.168 31.178 154.701 19.9502 154.701 19.9502C154.701 19.9502 155.835 17.0779 156.685 15.2502" fill="#051244"/>
</svg>
