<svg width="131" height="94" viewBox="0 0 131 94" fill="none" xmlns="http://www.w3.org/2000/svg">
<path d="M23.6476 93.7839V87.5386C23.6476 85.1436 22.0817 83.5829 19.5113 83.5829C18.1614 83.5829 16.7169 84.0001 15.7098 85.3421C14.9268 84.1961 13.8198 83.5829 12.1324 83.5829C11.505 83.5577 10.8806 83.6776 10.3152 83.932C9.74981 84.1863 9.26097 84.5672 8.89244 85.0405V83.7839H6.76758V93.7763H8.89244V88.0589C8.89244 86.2996 10.0102 85.4577 11.5762 85.4577C13.1422 85.4577 14.0358 86.3951 14.0358 88.0589V93.7839H16.1607V88.0589C16.1607 86.2996 17.2785 85.4577 18.8444 85.4577C20.4104 85.4577 21.3041 86.3951 21.3041 88.0589V93.7839H23.6476ZM58.5364 83.8945H54.6214V80.8787H52.502V83.8945H50.2664V85.6537H52.502V90.3484C52.502 92.6379 53.3957 93.9925 56.0794 93.9925C57.0962 93.9727 58.0924 93.7226 58.9819 93.2636L58.3096 91.5044C57.7063 91.8554 57.0067 92.0361 56.2954 92.0246C55.1776 92.0246 54.6187 91.3989 54.6187 90.3584V85.5733H58.5337V83.9071L58.5364 83.8945ZM78.4404 83.5829C77.8616 83.5709 77.2894 83.6989 76.7797 83.9544C76.27 84.2099 75.8403 84.5841 75.5325 85.0405V83.7839H73.4077V93.7763H75.5325V88.1644C75.5325 86.4982 76.4262 85.4577 77.8815 85.4577C78.3726 85.4763 78.8598 85.5462 79.3341 85.6663L80.0063 83.7915C79.4936 83.6712 78.9688 83.6013 78.4404 83.5829ZM48.3603 84.6233C47.2425 83.8945 45.6765 83.5829 43.9999 83.5829C41.3161 83.5829 39.6394 84.7289 39.6394 86.7068C39.6394 88.373 40.8706 89.3079 43.2169 89.622L44.3346 89.7251C45.5658 89.9337 46.3488 90.3509 46.3488 90.8711C46.3488 91.5999 45.4551 92.1277 43.7757 92.1277C42.4934 92.1522 41.2375 91.787 40.1983 91.0872L39.0805 92.6479C40.6465 93.6884 42.5473 93.9045 43.6705 93.9045C46.8024 93.9045 48.4791 92.5524 48.4791 90.6776C48.4791 88.9184 47.1291 88.0764 44.7882 87.7623L43.6705 87.6593C42.6634 87.5562 41.7805 87.2421 41.7805 86.6188C41.7805 85.89 42.6742 85.3622 43.9053 85.3622C45.2553 85.3622 46.5891 85.8824 47.2614 86.1941L48.3603 84.6233ZM80.7893 88.7877C80.7893 91.8035 82.9142 93.9925 86.3809 93.9925C87.9469 93.9925 89.0647 93.6808 90.1824 92.8465L89.0647 91.2858C88.2732 91.8824 87.2886 92.2127 86.2702 92.2232C84.3803 92.2232 82.9142 90.8711 82.9142 88.8932C82.9142 86.9154 84.3614 85.5733 86.2702 85.5733C87.2886 85.5838 88.2732 85.9141 89.0647 86.5107L90.1824 84.9501C89.0647 84.1182 87.9469 83.804 86.3809 83.804C83.0249 83.5955 80.7893 85.7819 80.7893 88.8002V88.7877ZM65.8046 83.5829C62.6727 83.5829 60.5478 85.6638 60.5478 88.7877C60.5478 91.9116 62.7834 93.9925 66.026 93.9925C67.6035 94.0235 69.144 93.5458 70.3864 92.6404L69.2687 91.1827C68.3701 91.8308 67.273 92.1953 66.1367 92.2232C64.6841 92.2232 63.1182 91.3913 62.8968 89.622H70.8373V88.7902C70.8373 85.6663 68.8232 83.5854 65.8046 83.5854V83.5829ZM65.6939 85.4577C67.2599 85.4577 68.3777 86.3951 68.4884 87.9558H62.6754C63.0102 86.4982 64.0254 85.4577 65.6939 85.4577ZM36.7316 88.7877V83.7915H34.6067V85.0481C33.8237 84.1107 32.7168 83.5904 31.14 83.5904C28.1215 83.5904 25.8832 85.7769 25.8832 88.7952C25.8832 91.8135 28.1188 94 31.14 94C32.706 94 33.8237 93.4798 34.6067 92.5424V93.7989H36.7316V88.7877ZM28.1215 88.7877C28.1215 86.9128 29.3526 85.4577 31.4775 85.4577C33.4917 85.4577 34.7174 86.9154 34.7174 88.7877C34.7174 90.7655 33.3675 92.1176 31.4775 92.1176C29.3526 92.2207 28.1215 90.66 28.1215 88.7877ZM110.761 83.5829C110.183 83.5709 109.61 83.6989 109.101 83.9544C108.591 84.2099 108.161 84.5841 107.854 85.0405V83.7839H105.729V93.7763H107.851V88.1644C107.851 86.4982 108.745 85.4577 110.2 85.4577C110.691 85.4763 111.178 85.5462 111.652 85.6663L112.325 83.7915C111.812 83.6712 111.287 83.6013 110.759 83.5829H110.761ZM102.486 88.7877V83.7915H100.361V85.0481C99.5783 84.1107 98.4713 83.5904 96.8945 83.5904C93.876 83.5904 91.6377 85.7769 91.6377 88.7952C91.6377 91.8135 93.8733 94 96.8945 94C98.4605 94 99.5783 93.4798 100.361 92.5424V93.7989H102.486V88.7877ZM93.876 88.7877C93.876 86.9128 95.1071 85.4577 97.232 85.4577C99.2462 85.4577 100.472 86.9154 100.472 88.7877C100.472 90.7655 99.122 92.1176 97.232 92.1176C95.1071 92.2207 93.876 90.66 93.876 88.7877ZM124.069 88.7877V79.8358H121.945V85.0405C121.162 84.1031 120.055 83.5829 118.478 83.5829C115.459 83.5829 113.221 85.7694 113.221 88.7877C113.221 91.806 115.457 93.9925 118.478 93.9925C120.044 93.9925 121.162 93.4722 121.945 92.5348V93.7914H124.069V88.7877ZM115.459 88.7877C115.459 86.9128 116.691 85.4577 118.815 85.4577C120.83 85.4577 122.055 86.9154 122.055 88.7877C122.055 90.7655 120.705 92.1176 118.815 92.1176C116.688 92.2232 115.457 90.6625 115.457 88.7877H115.459Z" fill="black"/>
<path d="M84.706 8.01427H45.9023V66.9281H84.706V8.01427Z" fill="#FF5F00"/>
<path d="M49.8182 37.4714C49.8195 31.8039 51.1983 26.2101 53.8513 21.1088C56.5043 16.0075 60.3627 11.5311 65.1377 8.01453C59.1993 3.66854 52.0671 0.965501 44.5563 0.214411C37.0455 -0.536678 29.4592 0.694488 22.6646 3.76717C15.87 6.83986 10.1413 11.6301 6.13339 17.5902C2.12545 23.5504 0 30.44 0 37.4714C0 44.5029 2.12545 51.3925 6.13339 57.3526C10.1413 63.3128 15.87 68.103 22.6646 71.1757C29.4592 74.2484 37.0455 75.4795 44.5563 74.7285C52.0671 73.9774 59.1993 71.2743 65.1377 66.9283C60.3627 63.4118 56.5043 58.9353 53.8513 53.8341C51.1983 48.7328 49.8195 43.139 49.8182 37.4714Z" fill="#EB001B"/>
<path d="M130.334 37.4712C130.34 44.4976 128.221 51.3835 124.219 57.3414C120.218 63.2994 114.496 68.0888 107.708 71.1619C100.919 74.2349 93.3389 75.4676 85.8334 74.7189C78.3278 73.9702 71.2002 71.2703 65.2656 66.9281C70.0417 63.4125 73.901 58.9362 76.5542 53.8347C79.2073 48.7333 80.5856 43.139 80.5856 37.4712C80.5856 31.8034 79.2073 26.2091 76.5542 21.1077C73.901 16.0062 70.0417 11.5299 65.2656 8.0143C71.2002 3.67207 78.3278 0.972202 85.8334 0.223493C93.3389 -0.525217 100.919 0.707462 107.708 3.78054C114.496 6.85363 120.218 11.643 124.219 17.601C128.221 23.5589 130.34 30.4449 130.334 37.4712Z" fill="#F79E1B"/>
</svg>
